<?xml version="1.0" standalone="no"?>
<!DOCTYPE svg PUBLIC "-//W3C//DTD SVG 1.1//EN" "http://www.w3.org/Graphics/SVG/1.1/DTD/svg11.dtd" >
<svg>
<metadata>
Created by FontForge 20120731 at Tue Sep 23 22:53:03 2014
 By Ted Ying
Converted by Andrey V. Panov from TeX fonts. Some glyphs are copied from Blue Sky fonts released by AMS.
</metadata>
<defs>
<font id="CMUSerif-Italic" horiz-adv-x="511" >
  <font-face 
    font-family="CMU Serif"
    font-weight="500"
    font-style="italic"
    font-stretch="normal"
    units-per-em="1000"
    panose-1="2 0 6 3 0 0 0 0 0 0"
    ascent="800"
    descent="-200"
    x-height="442"
    cap-height="683"
    bbox="-35 -250 1124 750"
    underline-thickness="50"
    underline-position="-100"
    slope="-14.04"
    stemh="31"
    stemv="70"
    unicode-range="U+0020-2013"
  />
    <missing-glyph />
    <glyph glyph-name="space" unicode=" " horiz-adv-x="358" 
 />
    <glyph glyph-name="quotesingle" unicode="'" horiz-adv-x="307" 
d="M229 352c0 6 3 22 4 31l41 258c2 10 3 62 50 64h1c19 0 35 -12 35 -32c0 -11 -5 -23 -8 -33l-99 -287c-2 -6 -6 -15 -13 -15c-4 0 -11 3 -11 14z" />
    <glyph glyph-name="parenleft" unicode="(" horiz-adv-x="408" 
d="M152 47c0 107 31 299 141 480c87 142 202 223 213 223c6 0 10 -3 10 -10c0 -3 -1 -4 -15 -18c-240 -204 -299 -575 -299 -711c0 -70 8 -155 62 -237c7 -10 7 -12 7 -14c0 -6 -4 -10 -10 -10c-14 0 -57 58 -82 125c-18 50 -27 113 -27 172z" />
    <glyph glyph-name="parenright" unicode=")" horiz-adv-x="408" 
d="M18 -240c0 3 1 4 15 18c240 204 299 575 299 711c0 70 -8 155 -62 237c-7 10 -7 12 -7 14c0 6 4 10 10 10c14 0 57 -58 82 -125c18 -50 27 -113 27 -172c0 -107 -31 -299 -141 -480c-87 -142 -202 -223 -213 -223c-6 0 -10 3 -10 10z" />
    <glyph glyph-name="plus" unicode="+" horiz-adv-x="766" 
d="M141 250c0 10 12 12 23 12c5 0 9 -1 12 -1h261c1 6 68 274 70 281c2 6 6 12 12 12c8 0 10 -5 10 -12c0 -9 -4 -20 -5 -25l-64 -256h255c3 0 8 1 12 1c11 0 23 -2 23 -12c0 -11 -12 -11 -35 -11h-261l-65 -261c-5 -19 -7 -32 -17 -32c-8 0 -10 5 -10 12
c0 13 47 186 69 281h-255c-3 0 -9 -1 -13 -1c-11 0 -22 2 -22 12z" />
    <glyph glyph-name="comma" unicode="," horiz-adv-x="306" 
d="M73 -183c0 4 1 5 13 17c47 40 97 104 112 181c-5 -4 -21 -15 -41 -15c-21 0 -44 10 -44 42c0 29 25 64 65 64c32 0 46 -26 46 -59c0 -119 -123 -240 -141 -240c-7 0 -10 7 -10 10z" />
    <glyph glyph-name="hyphen" unicode="-" horiz-adv-x="358" 
d="M86 201c0 0 4 35 17 40c4 2 8 2 13 2h199c11 0 22 -1 22 -14c0 -1 -3 -33 -14 -39c-4 -2 -10 -3 -15 -3h-200c-12 0 -22 1 -22 14z" />
    <glyph glyph-name="period" unicode="." horiz-adv-x="307" 
d="M112 43c0 30 30 63 64 63c26 0 43 -19 43 -43c0 -30 -30 -63 -64 -63c-26 0 -43 19 -43 43z" />
    <glyph glyph-name="slash" unicode="/" 
d="M18 -238c0 7 5 15 9 21l543 917c15 25 25 48 36 48c6 0 10 -6 10 -11s-4 -11 -7 -16l-543 -917c-30 -51 -31 -52 -39 -52c-6 0 -9 4 -9 10z" />
    <glyph glyph-name="zero" unicode="0" 
d="M117 148c0 89 43 264 92 357c60 114 140 161 212 161c129 0 134 -130 134 -170c0 -81 -38 -239 -79 -332c-65 -145 -159 -186 -225 -186c-134 0 -134 139 -134 170zM181 98c0 -78 43 -98 75 -98c52 0 102 51 124 98c43 95 113 378 113 452c0 64 -36 94 -77 94
c-34 0 -88 -22 -125 -97c-35 -72 -110 -367 -110 -449z" />
    <glyph glyph-name="one" unicode="1" 
d="M117 12c0 19 11 19 28 19h8c78 0 86 10 94 42l118 474c-47 -35 -96 -41 -111 -41c-4 0 -16 0 -16 12c0 17 11 18 16 19c29 3 99 10 176 113c12 15 13 16 19 16s12 -4 12 -12c0 -2 -2 -10 -3 -13l-143 -571c-1 -4 -3 -13 -3 -19c0 -14 6 -15 28 -18c13 -1 30 -2 43 -2h8
c16 0 26 0 26 -12c0 -19 -13 -19 -20 -19c-44 0 -90 3 -134 3c-43 0 -88 -3 -131 -3c-4 0 -15 0 -15 12z" />
    <glyph glyph-name="two" unicode="2" 
d="M84 -12c0 1 11 71 81 155c42 52 84 76 129 103c99 59 186 143 186 288c0 83 -47 110 -88 110c-122 0 -197 -188 -197 -253c0 -28 10 -33 22 -33c61 0 98 106 98 135c0 12 -4 25 -10 37c-1 2 -1 4 -1 6c0 6 5 11 11 11c13 0 22 -35 22 -53c0 -38 -42 -158 -121 -158
c-45 0 -51 43 -51 63c0 65 82 267 230 267c78 0 156 -54 156 -169c0 -129 -91 -191 -245 -278c-31 -18 -104 -59 -154 -145c2 1 11 3 22 3c31 0 70 -9 106 -17c16 -4 55 -12 83 -12c67 0 106 67 120 108c4 16 5 17 17 17c7 0 15 0 15 -10c0 -11 -46 -185 -161 -185
c-40 0 -71 22 -97 40c-25 17 -53 37 -85 37c-30 0 -48 -36 -56 -64c-3 -11 -5 -13 -17 -13c-5 0 -15 0 -15 10z" />
    <glyph glyph-name="three" unicode="3" 
d="M95 106c0 18 2 78 53 78c23 0 34 -16 34 -32c0 -15 -13 -52 -56 -48c2 -74 52 -104 102 -104c45 0 91 25 119 59c52 60 61 159 61 177c0 81 -58 83 -77 83h-28c-17 0 -25 0 -25 10c0 21 9 21 26 21h23c165 0 175 188 175 204c0 72 -48 90 -85 90
c-97 0 -188 -94 -188 -173c0 -18 6 -37 26 -37c29 0 61 28 61 62c0 15 -7 28 -8 29c-3 6 -4 8 -4 11c0 6 5 11 11 11c12 0 23 -31 23 -50c0 -50 -46 -85 -83 -85s-56 29 -56 64c0 85 101 190 220 190c78 0 143 -49 143 -134c0 -76 -58 -167 -162 -202
c76 -35 80 -108 80 -127c0 -120 -126 -225 -252 -225c-85 0 -133 60 -133 128z" />
    <glyph glyph-name="four" unicode="4" 
d="M44 18c0 16 32 33 39 36c4 3 93 73 172 201c71 116 115 236 148 361c7 27 13 50 42 50c10 0 27 -5 27 -26c0 -1 -58 -324 -328 -574c13 1 15 1 27 1c22 0 39 0 76 -11c29 -10 -12 3 61 -23c1 6 39 156 42 166c4 17 10 43 40 43c3 0 27 -1 27 -27c0 -3 0 -5 -4 -20
l-44 -178c5 -1 9 -1 16 -1c17 0 42 4 60 11c10 4 12 4 14 4c9 0 15 -12 15 -17c0 -16 -65 -29 -93 -29c-6 0 -14 0 -20 1l-37 -146c-6 -23 -19 -34 -38 -34c-10 0 -27 5 -27 26c0 4 0 6 4 21l37 149c-22 8 -46 18 -59 23c-35 11 -55 11 -73 11c-59 0 -68 -7 -77 -15
c-11 -8 -26 -20 -32 -20c-8 0 -15 13 -15 17z" />
    <glyph glyph-name="five" unicode="5" 
d="M107 117c0 32 6 91 58 91c23 0 36 -14 36 -34c0 -23 -19 -52 -53 -52c-5 0 -7 0 -10 1c1 -97 62 -117 98 -117c37 0 96 22 140 103c21 40 50 145 50 200c0 54 -20 89 -61 89c-29 0 -84 -9 -135 -69c-7 -7 -9 -10 -16 -10c-6 0 -13 2 -13 12c0 2 1 10 2 13l76 304
c3 11 5 17 12 17c4 0 8 -2 14 -5c29 -16 68 -26 112 -26c39 0 84 8 129 28c5 2 9 3 12 3s9 -2 9 -9c0 -15 -88 -98 -198 -98c-20 0 -43 2 -62 9c-10 3 -12 3 -13 3s-2 -1 -5 -12l-46 -184c37 29 78 46 124 46c87 0 131 -76 131 -155c0 -152 -134 -287 -262 -287
c-86 0 -129 66 -129 139z" />
    <glyph glyph-name="six" unicode="6" 
d="M120 158c0 70 22 229 107 349c72 102 162 159 244 159c60 0 97 -29 97 -79c0 -38 -18 -66 -52 -66c-26 0 -34 18 -34 32c0 7 5 48 53 48c-10 36 -43 40 -65 40c-61 0 -114 -48 -145 -87c-46 -59 -70 -125 -93 -215c30 44 74 87 135 87c113 0 140 -106 140 -156
c0 -150 -127 -292 -253 -292c-134 0 -134 153 -134 180zM185 97c0 -29 12 -91 71 -91c56 0 98 43 124 90c20 39 55 175 55 221c0 31 -9 51 -18 63c-17 24 -39 24 -53 24c-133 0 -179 -228 -179 -307z" />
    <glyph glyph-name="seven" unicode="7" 
d="M144 432c0 1 0 3 6 15l96 204c7 14 8 15 19 15c5 0 15 0 15 -10c0 -1 0 -3 -23 -53c58 55 107 63 134 63c41 0 45 -30 49 -68c3 -34 6 -49 28 -49c41 0 78 40 115 94l15 20c4 3 8 3 13 3c6 0 14 0 14 -10c0 -2 0 -4 -9 -17c-28 -43 -74 -112 -126 -224
c-58 -124 -100 -251 -131 -371c-8 -34 -17 -66 -56 -66c-17 0 -35 11 -35 33c0 4 19 111 110 293c33 66 34 68 135 234c-14 -7 -29 -11 -45 -11c-17 0 -33 5 -49 34c-17 28 -22 35 -41 35c-36 0 -128 -21 -203 -166c-4 -7 -5 -8 -16 -8c-7 0 -15 0 -15 10z" />
    <glyph glyph-name="eight" unicode="8" 
d="M97 115c0 45 19 143 189 222c-45 40 -46 41 -52 49c-10 13 -24 41 -24 77c0 100 100 203 210 203c70 0 134 -42 134 -118c0 -74 -58 -140 -157 -188c23 -20 62 -54 68 -61c20 -27 29 -59 29 -91c0 -115 -116 -230 -242 -230c-85 0 -155 53 -155 137zM147 113
c0 -64 44 -107 108 -107c92 0 180 80 180 160c0 45 -23 64 -48 86l-82 69c-99 -47 -158 -135 -158 -208zM265 509c0 -24 10 -46 28 -61l76 -64c7 -7 8 -7 9 -7c6 0 131 68 131 173c0 58 -39 91 -92 91c-77 0 -152 -66 -152 -132z" />
    <glyph glyph-name="nine" unicode="9" 
d="M104 58c0 36 18 65 52 65c26 0 34 -18 34 -32c0 -5 -3 -45 -51 -49c13 -29 47 -36 75 -36c62 0 110 52 131 78c44 56 69 116 95 222c-31 -47 -75 -87 -135 -87c-115 0 -140 112 -140 157c0 148 127 290 258 290c130 0 130 -151 130 -178c0 -44 -14 -221 -114 -362
c-47 -67 -131 -148 -227 -148c-62 0 -108 27 -108 80zM237 328c0 -14 0 -87 71 -87c137 0 180 237 180 309c0 43 -16 91 -67 91c-71 0 -114 -68 -126 -90c-28 -50 -58 -185 -58 -223z" />
    <glyph glyph-name="colon" unicode=":" horiz-adv-x="306" 
d="M113 43c0 33 33 63 65 63c28 0 44 -21 44 -43c0 -30 -31 -63 -65 -63c-26 0 -44 17 -44 43zM194 368c0 31 31 63 65 63c28 0 44 -20 44 -43c0 -31 -31 -63 -65 -63c-28 0 -44 20 -44 43z" />
    <glyph glyph-name="at" unicode="@" horiz-adv-x="766" 
d="M151 248c0 232 205 457 406 457c127 0 232 -94 232 -260c0 -91 -42 -201 -43 -204c-15 -41 -47 -113 -118 -113c-21 0 -72 8 -75 65c-20 -19 -70 -65 -136 -65c-76 0 -138 60 -138 158c0 143 124 280 243 280c79 0 105 -65 113 -85h26c16 0 23 0 23 -10
c0 -1 -1 -10 -2 -13l-65 -263c-1 -6 -3 -14 -3 -20c0 -25 12 -25 18 -25c89 0 127 250 127 298c0 133 -78 235 -203 235c-179 0 -374 -213 -374 -437c0 -127 69 -235 207 -235c89 0 177 23 258 60c16 7 18 7 34 7c19 0 25 0 25 -10c0 -16 -122 -51 -148 -57
c-87 -22 -156 -22 -170 -22c-158 0 -237 124 -237 259zM340 270c0 -46 17 -120 80 -120c68 0 141 82 150 118l40 162c0 2 3 13 3 14c0 14 -17 100 -91 100c-85 0 -182 -143 -182 -274z" />
    <glyph glyph-name="A" unicode="A" horiz-adv-x="743" 
d="M59 14c0 40 61 -19 131 99l327 576c6 9 13 27 32 27s18 -16 19 -28l43 -621c2 -31 12 -35 52 -36c12 0 27 1 27 -14c0 -7 -4 -17 -20 -17c-20 0 -41 3 -103 3c-77 0 -102 -3 -112 -3s-15 7 -15 14c0 30 48 5 80 32c7 6 8 15 8 27c0 15 -5 62 -11 157h-228
c-64 -112 -85 -144 -85 -165c0 -42 55 -25 55 -46c0 -7 -2 -19 -20 -19c-9 0 -36 3 -89 3c-33 0 -57 -3 -69 -3c-16 0 -22 3 -22 14zM307 260h208l-22 327z" />
    <glyph glyph-name="B" unicode="B" horiz-adv-x="703" 
d="M65 12c0 19 11 19 27 19c68 0 74 8 82 42l135 543c4 14 4 16 4 19c0 17 -27 17 -58 17c-19 0 -27 0 -27 12c0 19 11 19 27 19h311c109 0 168 -64 168 -136c0 -77 -74 -163 -196 -190c72 -9 139 -55 139 -138c0 -104 -115 -219 -257 -219h-330c-16 0 -25 0 -25 12zM243 41
c0 -7 0 -10 31 -10h124c110 0 190 104 190 201c0 26 -6 112 -99 112h-172l-70 -281c-1 -6 -4 -16 -4 -22zM323 366h132c114 0 191 102 191 187c0 31 -10 99 -94 99h-118c-33 0 -40 0 -49 -36z" />
    <glyph glyph-name="C" unicode="C" horiz-adv-x="715" 
d="M150 245c0 235 215 460 421 460c50 0 108 -16 151 -85l63 74c9 11 14 11 16 11c10 0 11 -8 11 -10c0 -4 -1 -10 -2 -14l-61 -243c-4 -17 -7 -18 -18 -18c-5 0 -15 0 -15 10c0 3 5 35 5 61c0 87 -36 183 -142 183c-77 0 -169 -46 -237 -138c-80 -110 -105 -267 -105 -329
c0 -142 88 -198 172 -198c83 0 208 64 259 233c3 8 10 8 16 8c5 0 15 0 15 -10c0 -48 -109 -262 -304 -262c-138 0 -245 103 -245 267z" />
    <glyph glyph-name="D" unicode="D" horiz-adv-x="755" 
d="M63 12c0 19 11 19 27 19c68 0 74 8 82 42l135 543c4 14 4 16 4 19c0 17 -27 17 -58 17c-19 0 -27 0 -27 12c0 19 11 19 27 19h312c129 0 210 -102 210 -245c0 -225 -191 -438 -380 -438h-307c-16 0 -25 0 -25 12zM244 41c0 -7 0 -10 31 -10h103c80 0 151 42 200 99
c85 100 114 287 114 346c0 131 -79 176 -160 176h-97c-33 0 -40 -1 -49 -36l-138 -553c-1 -6 -4 -16 -4 -22z" />
    <glyph glyph-name="E" unicode="E" horiz-adv-x="678" 
d="M62 12c0 19 11 19 27 19c68 0 74 8 82 42l134 536c4 15 4 22 4 23c0 9 0 17 -58 17c-20 0 -27 0 -27 13c0 18 10 18 27 18h467c21 0 27 0 24 -26l-23 -177c-2 -18 -3 -22 -17 -22c-4 0 -15 0 -15 12c0 3 1 12 2 17c3 24 5 37 5 64c0 71 -25 101 -133 101h-125
c-33 0 -40 -1 -48 -34l-61 -246h81c81 0 100 22 119 93c6 21 6 24 19 24c4 0 16 0 16 -12c0 -2 -2 -10 -3 -13l-55 -220c-4 -18 -7 -20 -18 -20c-6 0 -16 0 -16 12c0 3 2 9 2 11c8 29 9 44 9 51c0 27 -7 43 -75 43h-87l-69 -275c-1 -6 -4 -16 -4 -22c0 -7 0 -10 31 -10h122
c159 0 194 65 252 203c9 23 10 24 21 24c3 0 15 0 15 -11c0 -1 -3 -10 -4 -12l-89 -219c-7 -15 -8 -16 -28 -16h-479c-16 0 -25 0 -25 12z" />
    <glyph glyph-name="F" unicode="F" horiz-adv-x="652" 
d="M62 12c0 19 11 19 27 19c68 0 74 8 82 42l134 536c4 15 4 22 4 23c0 9 0 17 -58 17c-20 0 -27 0 -27 13c0 18 10 18 27 18h455c21 0 27 0 24 -26l-23 -177c-2 -18 -3 -22 -17 -22c-4 0 -15 0 -15 12l1 16c3 23 6 42 6 66c0 69 -22 100 -129 100h-117
c-33 0 -40 -1 -48 -34l-64 -259h78c83 0 99 25 117 96c5 18 6 21 19 21c3 0 15 0 15 -11c0 -5 -1 -10 -2 -14l-55 -220c-5 -19 -8 -20 -19 -20c-4 0 -15 0 -15 12c0 3 1 7 3 14c4 16 8 32 8 49c0 27 -9 42 -74 42h-83l-63 -252c-4 -15 -4 -17 -4 -21c0 -13 0 -21 73 -21h10
c16 0 25 0 25 -12c0 -19 -12 -19 -21 -19c-45 0 -92 3 -138 3c-40 0 -82 -3 -122 -3c-3 0 -14 0 -14 12z" />
    <glyph glyph-name="G" unicode="G" horiz-adv-x="773" 
d="M150 245c0 235 215 460 421 460c50 0 108 -16 151 -85l63 74c9 11 14 11 16 11c10 0 11 -8 11 -10c0 -4 -1 -10 -2 -14l-61 -243c-4 -17 -7 -18 -18 -18c-5 0 -15 0 -15 10c0 3 5 35 5 61c0 87 -36 183 -142 183c-77 0 -169 -46 -237 -138c-81 -111 -105 -270 -105 -328
c0 -133 82 -199 177 -199c38 0 93 12 136 51c30 28 32 39 54 128c8 28 8 30 8 34c0 14 -8 15 -29 18c-13 1 -30 2 -43 2h-8c-15 0 -26 0 -26 11c0 20 13 20 21 20c43 0 88 -3 131 -3c32 0 66 3 97 3c9 0 13 -5 13 -13c0 -18 -11 -18 -24 -18c-44 0 -46 -10 -52 -33l-48 -191
c-3 -11 -5 -17 -12 -17c-11 0 -33 36 -42 60c-29 -37 -102 -83 -194 -83c-142 0 -246 106 -246 267z" />
    <glyph glyph-name="H" unicode="H" horiz-adv-x="743" 
d="M62 12c0 19 11 19 27 19c68 0 74 8 82 42l135 543c4 14 4 16 4 19c0 17 -27 17 -58 17c-19 0 -27 0 -27 12c0 19 13 19 19 19c39 0 80 -3 120 -3c39 0 80 3 118 3c7 0 14 -2 14 -13c0 -18 -9 -18 -30 -18c-63 0 -71 -8 -79 -40l-60 -241h274l61 245c4 14 4 16 4 19
c0 17 -27 17 -58 17c-19 0 -27 0 -27 12c0 19 13 19 19 19c39 0 80 -3 120 -3c39 0 80 3 118 3c7 0 14 -2 14 -13c0 -18 -9 -18 -30 -18c-63 0 -71 -8 -79 -40l-135 -541c-4 -15 -4 -22 -4 -23c0 -9 0 -17 58 -17c20 0 27 0 27 -13c0 -18 -12 -18 -19 -18
c-39 0 -80 3 -120 3c-39 0 -80 -3 -118 -3c-3 0 -14 0 -14 12c0 19 11 19 27 19c68 0 74 8 82 42l66 267h-274l-67 -272c-4 -14 -4 -16 -4 -20c0 -9 0 -17 58 -17c20 0 27 0 27 -13c0 -18 -12 -18 -19 -18c-39 0 -80 3 -120 3c-39 0 -80 -3 -118 -3c-3 0 -14 0 -14 12z" />
    <glyph glyph-name="I" unicode="I" horiz-adv-x="385" 
d="M57 13c0 18 9 18 30 18c67 0 76 8 84 41l136 544c1 3 3 16 3 19c0 17 -29 17 -63 17c-20 0 -27 0 -27 13c0 18 12 18 19 18c41 0 84 -3 125 -3s83 3 123 3c4 0 14 0 14 -12c0 -19 -10 -19 -31 -19c-69 0 -75 -9 -83 -41l-135 -540c-4 -15 -4 -21 -4 -22
c0 -11 0 -18 62 -18c20 0 28 0 28 -12c0 -19 -13 -19 -20 -19c-40 0 -83 3 -124 3s-83 -3 -123 -3c-7 0 -14 2 -14 13z" />
    <glyph glyph-name="J" unicode="J" horiz-adv-x="525" 
d="M94 86c0 77 59 77 62 77c21 0 41 -13 41 -39c0 -25 -22 -59 -60 -59c-7 0 -9 0 -11 1c8 -41 43 -66 84 -66c55 0 112 70 131 145l116 466c4 14 4 16 4 20c0 15 -8 16 -30 19c-18 2 -29 2 -46 2h-12c-16 0 -25 0 -25 12c0 19 12 19 21 19c44 0 91 -3 136 -3
c34 0 70 3 103 3c8 0 14 -3 14 -12c0 -19 -11 -19 -26 -19c-45 0 -52 -8 -59 -36l-117 -472c-22 -91 -114 -166 -208 -166c-64 0 -118 40 -118 108z" />
    <glyph glyph-name="K" unicode="K" horiz-adv-x="768" 
d="M62 12c0 19 11 19 27 19c68 0 74 8 82 42l135 543c4 14 4 16 4 19c0 17 -27 17 -58 17c-19 0 -27 0 -27 12c0 19 13 19 19 19c39 0 80 -3 120 -3c39 0 80 3 118 3c7 0 14 -2 14 -13c0 -18 -9 -18 -30 -18c-63 0 -71 -8 -79 -40l-79 -319l352 293c16 13 33 28 33 46
c0 14 -12 19 -26 20c-5 0 -14 1 -14 12c0 19 13 19 19 19c34 0 72 -3 107 -3c23 0 48 3 69 3c7 0 11 -5 11 -12c0 -17 -10 -18 -18 -19c-66 -6 -134 -63 -157 -82l-184 -153l131 -347c12 -31 24 -38 60 -39c9 0 18 0 18 -12c0 -15 -8 -19 -17 -19c-29 0 -61 3 -91 3
c-37 0 -76 -3 -112 -3c-7 0 -14 2 -14 13c0 18 12 18 19 18c13 0 51 1 51 33c0 3 0 5 -6 20l-104 279l-139 -115l-35 -144c-5 -18 -13 -50 -13 -56c0 -9 0 -17 58 -17c20 0 27 0 27 -13c0 -18 -12 -18 -19 -18c-39 0 -80 3 -120 3c-39 0 -80 -3 -118 -3c-3 0 -14 0 -14 12z
" />
    <glyph glyph-name="L" unicode="L" horiz-adv-x="627" 
d="M62 12c0 19 11 19 27 19c68 0 74 8 82 42l135 543c4 14 4 16 4 19c0 17 -27 17 -58 17c-19 0 -27 0 -27 12c0 19 13 19 19 19c40 0 82 -3 123 -3c46 0 93 3 138 3c4 0 15 0 15 -12c0 -19 -11 -19 -28 -19h-10c-81 0 -87 -10 -96 -45l-136 -544c-1 -6 -4 -16 -4 -22
c0 -7 0 -10 31 -10h81c156 0 199 116 231 205c7 19 8 22 20 22c3 0 15 0 15 -12c0 -1 -4 -12 -4 -13l-76 -215c-6 -17 -7 -18 -29 -18h-428c-16 0 -25 0 -25 12z" />
    <glyph glyph-name="M" unicode="M" horiz-adv-x="896" 
d="M66 12c0 18 11 19 19 19c45 2 83 14 97 70l128 515c4 14 4 16 4 19c0 17 -27 17 -58 17c-19 0 -27 0 -27 12c0 19 11 19 27 19h133c24 0 26 0 28 -22l56 -561l340 565c11 18 14 18 36 18h128c17 0 25 0 25 -13c0 -18 -9 -18 -30 -18c-63 0 -71 -8 -79 -40l-135 -541
c-4 -15 -4 -22 -4 -23c0 -9 0 -17 58 -17c20 0 27 0 27 -13c0 -18 -12 -18 -19 -18c-37 0 -78 3 -116 3s-77 -3 -114 -3c-3 0 -14 0 -14 12c0 19 11 19 27 19c68 0 74 8 82 42l141 566h-1l-373 -621c-6 -11 -11 -18 -24 -18c-15 0 -15 7 -17 24l-61 606h-1l-133 -531
c-4 -16 -4 -22 -4 -25c0 -15 2 -41 59 -43c12 0 19 -1 19 -13c0 -18 -12 -18 -18 -18c-31 0 -66 3 -98 3c-31 0 -65 -3 -95 -3c-7 0 -13 3 -13 12z" />
    <glyph glyph-name="N" unicode="N" horiz-adv-x="743" 
d="M62 12c0 18 11 19 19 19c46 2 83 15 97 70l132 530c3 10 3 12 3 13c0 8 -54 8 -61 8c-19 0 -27 0 -27 12c0 19 11 19 27 19h125c21 0 22 -1 28 -17l187 -520l110 439c2 8 4 15 4 24c0 21 -8 41 -60 43c-9 0 -18 1 -18 12c0 19 13 19 18 19c31 0 65 -3 97 -3s65 3 96 3
c9 0 13 -5 13 -13c0 -17 -12 -18 -15 -18c-29 -1 -85 -4 -101 -68l-140 -564c-5 -19 -9 -20 -20 -20c-14 0 -15 2 -20 17l-215 597l-129 -515c-4 -16 -4 -22 -4 -25c0 -15 2 -41 59 -43c12 0 19 -1 19 -13c0 -18 -12 -18 -18 -18c-31 0 -66 3 -98 3c-31 0 -65 -3 -95 -3
c-7 0 -13 3 -13 12z" />
    <glyph glyph-name="O" unicode="O" horiz-adv-x="766" 
d="M148 236c0 232 207 469 412 469c126 0 228 -97 228 -261c0 -241 -210 -466 -410 -466c-136 0 -230 107 -230 258zM238 205c0 -119 56 -201 147 -201c75 0 164 59 229 170c53 91 89 224 89 312c0 134 -72 194 -150 194c-87 0 -178 -73 -231 -167
c-70 -122 -84 -262 -84 -308z" />
    <glyph glyph-name="P" unicode="P" horiz-adv-x="678" 
d="M63 12c0 19 11 19 27 19c68 0 74 8 82 42l135 543c4 14 4 16 4 19c0 17 -27 17 -58 17c-19 0 -27 0 -27 12c0 19 11 19 27 19h300c109 0 177 -64 177 -148c0 -117 -135 -219 -261 -219h-155l-61 -248c-4 -14 -4 -16 -4 -20c0 -9 0 -17 58 -17c20 0 27 0 27 -13
c0 -18 -12 -18 -19 -18c-39 0 -80 3 -120 3c-39 0 -80 -3 -118 -3c-3 0 -14 0 -14 12zM318 342h126c60 0 110 19 145 58c38 44 53 142 53 162c0 64 -51 90 -121 90h-86c-33 0 -40 0 -49 -36z" />
    <glyph glyph-name="Q" unicode="Q" horiz-adv-x="766" 
d="M148 236c0 232 207 469 412 469c126 0 228 -97 228 -261c0 -179 -121 -366 -286 -438c2 -91 26 -106 60 -106c37 0 87 28 110 98c2 7 4 13 12 13c6 0 11 -5 11 -12c0 -2 -41 -193 -157 -193c-58 0 -79 37 -79 92c0 14 2 43 10 95c-21 -7 -56 -15 -91 -15
c-136 0 -230 107 -230 258zM233 202c0 -72 23 -154 94 -187c-2 5 -5 12 -5 28c0 48 42 105 97 105c72 0 78 -74 80 -106c161 102 205 350 205 438c0 119 -59 200 -151 200c-74 0 -159 -55 -220 -148c-75 -115 -100 -266 -100 -330zM344 43c0 -40 30 -40 41 -40
c32 0 64 11 88 23c1 8 1 20 1 28c0 26 0 72 -54 72c-44 0 -76 -47 -76 -83z" />
    <glyph glyph-name="R" unicode="R" horiz-adv-x="729" 
d="M63 12c0 19 11 19 27 19c68 0 74 8 82 42l135 543c4 14 4 16 4 19c0 17 -27 17 -58 17c-19 0 -27 0 -27 12c0 19 11 19 27 19h264c125 0 201 -69 201 -148c0 -73 -68 -160 -210 -196c51 -18 86 -60 86 -116c0 -21 -5 -65 -8 -88c-3 -26 -6 -50 -6 -76c0 -32 3 -59 33 -59
c31 0 61 32 78 88c3 12 4 17 17 17s15 -6 15 -13c0 -8 -30 -114 -114 -114c-63 0 -124 32 -124 106c0 19 4 33 15 80c14 56 17 65 17 79c0 72 -52 88 -94 88h-108l-65 -263c-4 -14 -4 -16 -4 -20c0 -9 0 -17 58 -17c20 0 27 0 27 -13c0 -18 -12 -18 -19 -18
c-39 0 -80 3 -119 3c-38 0 -78 -3 -116 -3c-3 0 -14 0 -14 12zM321 353h101c68 0 118 23 148 52c54 54 58 147 58 153c0 94 -98 94 -162 94c-19 0 -51 0 -58 -2s-15 -4 -22 -34z" />
    <glyph glyph-name="S" unicode="S" horiz-adv-x="562" 
d="M74 -12c0 3 1 6 3 13l52 209c4 15 6 17 18 17c6 0 15 0 15 -11c0 -2 -1 -4 -1 -6c-3 -11 -8 -38 -8 -61c0 -104 75 -140 150 -140c89 0 167 100 167 191c0 36 -11 58 -22 72c-17 18 -25 21 -77 36l-49 14c-15 4 -37 10 -43 13c-58 27 -80 80 -80 132
c0 115 109 238 232 238c20 0 91 -1 130 -68l45 56c9 11 10 12 15 12c10 0 11 -8 11 -10c0 -4 -1 -10 -2 -14l-52 -207c-4 -17 -7 -18 -18 -18c-5 0 -15 0 -15 10l1 14c4 22 5 29 5 55c0 74 -28 142 -122 142c-85 0 -162 -89 -162 -171c0 -41 17 -73 51 -88
c5 -2 36 -11 55 -16c95 -28 107 -31 132 -62c26 -32 33 -73 33 -102c0 -126 -111 -260 -237 -260c-52 0 -116 15 -153 69c-10 -13 -36 -45 -47 -57c-8 -10 -9 -12 -16 -12c-6 0 -11 4 -11 10z" />
    <glyph glyph-name="T" unicode="T" horiz-adv-x="715" 
d="M175 463c0 2 0 4 5 17l59 179c6 18 9 18 29 18h513c16 0 25 0 25 -12c0 -4 0 -9 -1 -13l-30 -179c-3 -18 -5 -21 -18 -21c-5 0 -15 0 -15 13c0 2 0 4 2 15c10 59 10 78 10 90c0 62 -23 76 -127 76c-17 0 -44 0 -52 -2c-8 -1 -16 -3 -23 -33l-134 -538
c-4 -14 -4 -16 -4 -19c0 -14 5 -18 33 -21c3 0 34 -2 50 -2h15c15 0 25 0 25 -11c0 -20 -12 -20 -21 -20c-51 0 -105 3 -157 3c-51 0 -104 -3 -155 -3c-5 0 -17 0 -17 12c0 19 11 19 28 19h16c88 0 97 10 106 45l134 537c2 6 4 15 4 22s0 11 -23 11h-34
c-129 0 -157 -21 -204 -162c-10 -26 -11 -27 -13 -29c-3 -3 -7 -3 -11 -3c-3 0 -15 0 -15 11z" />
    <glyph glyph-name="U" unicode="U" horiz-adv-x="743" 
d="M202 166c0 10 0 32 8 64l96 386c4 14 4 16 4 19c0 17 -27 17 -58 17c-19 0 -27 0 -27 12c0 19 13 19 19 19c39 0 80 -3 120 -3c39 0 80 3 118 3c7 0 14 -2 14 -13c0 -18 -9 -18 -30 -18c-63 0 -71 -8 -79 -40l-100 -402c-5 -22 -10 -54 -10 -76c0 -91 55 -125 107 -125
c94 0 200 91 232 220l89 356c2 8 4 15 4 24c0 21 -8 41 -60 43c-9 0 -18 1 -18 12c0 19 13 19 18 19c31 0 64 -3 96 -3c31 0 64 3 94 3c9 0 13 -5 13 -13c0 -17 -12 -18 -15 -18c-29 -1 -85 -4 -101 -68l-91 -366c-27 -110 -138 -240 -265 -240c-94 0 -178 68 -178 188z" />
    <glyph glyph-name="V" unicode="V" horiz-adv-x="743" 
d="M209 664c0 19 13 19 18 19c33 0 68 -3 102 -3c38 0 78 3 115 3c3 0 14 0 14 -12c0 -19 -11 -19 -25 -19c-10 0 -63 -1 -63 -31l51 -524l289 483c4 7 15 27 15 40c0 24 -24 31 -40 32c-8 1 -16 1 -16 12c0 19 12 19 18 19c29 0 62 -3 92 -3c25 0 52 3 76 3
c11 0 13 -9 13 -11c0 -19 -11 -19 -19 -20c-37 -3 -72 -14 -112 -81l-343 -574c-11 -18 -16 -19 -28 -19c-16 0 -17 5 -19 24l-60 616c-2 25 -4 34 -54 34c-14 0 -24 0 -24 12z" />
    <glyph glyph-name="W" unicode="W" horiz-adv-x="998" 
d="M208 664c0 19 14 19 18 19c31 0 66 -3 98 -3c37 0 76 3 113 3c3 0 14 0 14 -12c0 -19 -11 -19 -25 -19c-67 -1 -66 -26 -65 -47l22 -489l233 428c6 10 6 12 6 20c0 1 -3 63 -4 67c-2 15 -6 21 -48 21c-10 0 -21 0 -21 12c0 19 14 19 18 19c31 0 66 -3 98 -3
c37 0 76 3 113 3c6 0 14 -2 14 -11c0 -20 -12 -20 -20 -20c-65 -1 -71 -20 -71 -37c0 -4 0 -6 1 -7l22 -492l253 466c6 11 11 20 11 32c0 31 -34 37 -51 38c-7 0 -16 1 -16 12c0 19 13 19 19 19c32 0 67 -3 99 -3c24 0 50 3 73 3c12 0 12 -10 12 -11c0 -10 -4 -19 -14 -20
c-48 -4 -72 -20 -106 -82l-313 -574c-10 -18 -18 -18 -26 -18c-17 0 -17 6 -18 25l-22 498l-275 -503c-8 -15 -11 -20 -26 -20s-17 4 -18 25l-28 617c-1 24 -1 32 -46 32c-14 0 -24 0 -24 12z" />
    <glyph glyph-name="X" unicode="X" horiz-adv-x="743" 
d="M51 12c0 1 1 18 12 19c33 2 89 5 148 73l208 237l-103 279c-8 22 -12 32 -66 32c-14 0 -24 0 -24 12c0 19 13 19 19 19c33 0 68 -3 102 -3c39 0 79 3 117 3c7 0 14 -2 14 -13c0 -17 -11 -18 -16 -18c-37 -3 -57 -22 -57 -29c0 -1 4 -11 4 -12l73 -199l148 170
c18 21 21 32 21 40c0 27 -29 29 -36 30c-3 0 -12 1 -12 12c0 19 12 19 18 19c33 0 70 -3 104 -3c29 0 59 3 87 3c6 0 13 -3 13 -12c0 -18 -10 -18 -21 -19c-76 -5 -113 -46 -137 -72l-12 -10l-163 -187l119 -322c7 -19 11 -30 65 -30c16 0 24 0 24 -13
c0 -18 -12 -18 -18 -18c-33 0 -69 3 -103 3c-38 0 -78 -3 -116 -3c-3 0 -15 0 -15 12c0 15 9 18 16 19c36 2 57 20 57 30c0 3 -2 8 -3 12l-88 239l-192 -219l-1 -2c-1 -2 -2 -4 -4 -6c-7 -10 -8 -20 -8 -24c0 -10 5 -27 35 -30c2 0 13 -1 13 -11c0 -20 -14 -20 -19 -20
c-33 0 -69 3 -103 3c-29 0 -60 -3 -88 -3c-10 0 -12 8 -12 12z" />
    <glyph glyph-name="Y" unicode="Y" horiz-adv-x="743" 
d="M202 664c0 19 13 19 19 19c33 0 70 -3 104 -3c39 0 79 3 117 3c4 0 14 0 14 -12c0 -19 -11 -19 -22 -19c-13 0 -56 -1 -56 -24c0 -1 0 -3 4 -13l95 -300l219 267c2 3 25 30 25 47c0 16 -14 22 -31 23c-6 0 -15 1 -15 12c0 19 12 19 18 19c30 0 62 -3 93 -3
c25 0 52 3 76 3c12 0 12 -10 12 -11c0 -19 -10 -19 -19 -20c-48 -4 -86 -25 -133 -82l-236 -287c-7 -8 -7 -10 -12 -27c-10 -42 -19 -75 -31 -123c-7 -29 -19 -77 -19 -85c0 -17 27 -17 58 -17c19 0 27 0 27 -12c0 -19 -13 -19 -19 -19c-38 0 -80 3 -119 3
c-38 0 -78 -3 -116 -3c-3 0 -14 0 -14 12c0 19 11 19 25 19c74 1 75 4 88 59c5 19 46 178 46 183c0 4 -2 10 -4 15l-106 334c-7 23 -17 30 -64 30c-14 0 -24 0 -24 12z" />
    <glyph glyph-name="Z" unicode="Z" horiz-adv-x="613" 
d="M80 9c0 12 6 19 11 25l517 618h-140c-158 0 -198 -85 -227 -176c-5 -14 -6 -18 -18 -18c-3 0 -15 0 -15 11c0 1 2 11 3 13l54 181c6 19 7 20 29 20h387c17 0 23 0 23 -9c0 -5 -1 -13 -12 -26l-515 -614h147c174 0 208 93 245 208c8 24 9 25 20 25c6 0 16 0 16 -12
c0 -1 -4 -14 -5 -16l-68 -221c-6 -18 -7 -18 -29 -18h-400c-16 0 -23 0 -23 9z" />
    <glyph glyph-name="a" unicode="a" 
d="M108 144c0 146 118 298 229 298c32 0 64 -16 83 -59c1 5 8 39 40 39c10 0 27 -5 27 -26c0 -5 0 -7 -4 -21l-68 -272c-7 -28 -7 -44 -7 -51c0 -14 0 -41 26 -41c34 0 53 63 67 119c6 22 7 23 19 23c7 0 15 0 15 -10c0 -2 -12 -60 -30 -98c-15 -31 -36 -56 -73 -56
c-35 0 -72 21 -83 70c-40 -49 -84 -70 -120 -70c-75 0 -121 70 -121 155zM176 100c0 -30 8 -89 55 -89c55 0 117 81 125 113l47 189c2 6 3 11 3 13c0 42 -25 94 -69 94c-41 0 -87 -50 -112 -111c-18 -42 -49 -159 -49 -209z" />
    <glyph glyph-name="b" unicode="b" horiz-adv-x="460" 
d="M115 141c0 38 10 79 11 82l99 395c0 1 3 14 3 17c0 10 -2 17 -50 17c-14 0 -24 0 -24 11c0 19 11 20 23 21l99 8c3 1 13 2 16 2c8 0 14 -3 14 -12c0 -2 -2 -10 -3 -13l-70 -280c34 32 68 53 106 53c60 0 120 -49 120 -156c0 -147 -117 -297 -229 -297
c-73 0 -115 68 -115 152zM172 107c0 -75 33 -96 58 -96c51 0 94 70 106 95c29 64 56 183 56 225c0 32 -10 89 -55 89c-38 0 -76 -34 -105 -74c-15 -20 -15 -22 -22 -46c-29 -114 -38 -149 -38 -193z" />
    <glyph glyph-name="c" unicode="c" horiz-adv-x="460" 
d="M110 154c0 146 129 288 253 288c64 0 107 -37 107 -86c0 -38 -24 -60 -51 -60c-23 0 -34 16 -34 32c0 2 0 43 50 49c-15 41 -60 43 -71 43c-45 0 -95 -35 -131 -100c-26 -48 -53 -153 -53 -206c0 -58 25 -103 79 -103c17 0 106 4 180 98c8 10 9 11 13 11
c8 0 16 -11 16 -16c0 -15 -83 -115 -211 -115c-88 0 -147 66 -147 165z" />
    <glyph glyph-name="d" unicode="d" 
d="M108 144c0 146 118 298 229 298c42 0 69 -27 84 -58l58 234c0 1 3 14 3 17c0 10 -2 17 -50 17c-14 0 -24 0 -24 11c0 19 11 20 23 21l99 8c3 1 13 2 16 2c8 0 14 -3 14 -12c0 -2 -2 -10 -3 -13l-143 -571c-6 -24 -6 -39 -6 -46c0 -14 0 -41 26 -41c34 0 53 63 67 119
c6 22 7 23 19 23c7 0 15 0 15 -10c0 -2 -12 -60 -30 -98c-15 -31 -36 -56 -73 -56c-35 0 -72 21 -83 70c-40 -49 -84 -70 -120 -70c-75 0 -121 70 -121 155zM176 100c0 -30 8 -89 55 -89c55 0 116 80 124 111l48 192c2 6 3 10 3 13c0 19 -10 48 -20 64c-18 28 -41 29 -49 29
c-41 0 -87 -50 -112 -111c-18 -42 -49 -159 -49 -209z" />
    <glyph glyph-name="e" unicode="e" horiz-adv-x="460" 
d="M114 164c0 177 143 278 248 278c64 0 101 -39 101 -85c0 -7 0 -72 -79 -104c-48 -19 -115 -22 -145 -22h-39c-7 -27 -17 -72 -17 -110c0 -39 11 -110 76 -110c17 0 106 4 180 98c8 10 9 11 13 11c8 0 16 -11 16 -16c0 -15 -83 -115 -211 -115c-95 0 -143 85 -143 175z
M206 253h21c33 0 198 0 198 106c0 34 -23 61 -63 61c-10 0 -113 -3 -156 -167z" />
    <glyph glyph-name="f" unicode="f" horiz-adv-x="306" 
d="M-25 -139c0 35 25 55 50 55c16 0 34 -10 34 -32c0 -20 -14 -44 -44 -49c11 -15 30 -18 40 -18c36 0 49 52 57 86c6 21 16 62 28 124l73 373h-62c-15 0 -25 0 -25 11c0 20 11 20 27 20h66l21 110c7 34 32 164 130 164c41 0 82 -23 82 -66c0 -35 -25 -55 -50 -55
c-16 0 -34 10 -34 32c0 20 14 44 44 49c-13 16 -34 18 -42 18c-36 0 -47 -53 -55 -90c-15 -70 -18 -88 -32 -162h78c17 0 25 0 25 -13c0 -18 -10 -18 -27 -18h-82l-70 -359c-7 -36 -48 -246 -152 -246c-37 0 -80 21 -80 66z" />
    <glyph glyph-name="g" unicode="g" horiz-adv-x="460" 
d="M53 -147c0 39 31 53 49 53c26 0 35 -19 35 -32c0 -17 -12 -38 -32 -46c27 -11 58 -11 71 -11c15 0 55 0 95 47c28 34 34 55 46 105l21 84c-12 -12 -55 -53 -106 -53c-75 0 -122 68 -122 153c0 141 115 289 227 289c43 0 70 -28 84 -57c4 29 27 37 39 37
c10 0 27 -5 27 -26c0 -4 0 -6 -4 -21l-109 -438c-19 -76 -95 -142 -200 -142c-84 0 -121 18 -121 58zM178 109c0 -11 2 -87 56 -87c55 0 116 78 124 110l45 182l3 14c0 8 -9 92 -69 92c-39 0 -83 -45 -108 -99c-21 -47 -51 -164 -51 -212z" />
    <glyph glyph-name="h" unicode="h" 
d="M75 15c0 2 1 11 2 13l148 590c0 1 3 14 3 17c0 10 -2 17 -50 17c-14 0 -24 0 -24 11c0 19 11 20 23 21l99 8c3 1 13 2 16 2c8 0 14 -3 14 -12c0 -2 -2 -10 -3 -13l-73 -292c31 30 66 65 133 65c49 0 104 -22 104 -104c0 -58 -41 -170 -61 -223c-8 -24 -18 -50 -18 -75
c0 -14 1 -29 22 -29c58 0 85 98 93 125c4 15 4 17 17 17c7 0 15 0 15 -10c0 -5 -34 -154 -127 -154c-48 0 -76 36 -76 80c0 21 3 30 16 64c14 40 58 159 58 221c0 21 -2 66 -46 66c-70 0 -113 -63 -133 -95c-18 -32 -19 -34 -28 -70c-5 -22 -11 -43 -16 -65
c-7 -28 -39 -158 -43 -173c-3 -11 -16 -28 -37 -28c-19 0 -28 15 -28 26z" />
    <glyph glyph-name="i" unicode="i" horiz-adv-x="306" 
d="M244 608c0 28 27 48 48 48c14 0 34 -8 34 -33c0 -29 -28 -48 -48 -48c-14 0 -34 8 -34 33zM83 288c0 5 34 154 128 154c37 0 75 -25 75 -80c0 -19 -2 -27 -12 -56l-64 -171c-13 -37 -26 -70 -26 -96c0 -27 14 -28 22 -28c58 0 85 96 93 125c4 15 4 17 17 17
c7 0 15 0 15 -10c0 -4 -33 -154 -127 -154c-52 0 -76 41 -76 80c0 20 4 31 18 69c12 33 24 66 37 99l30 83c7 19 18 48 18 72c0 23 -11 28 -22 28c-58 0 -84 -93 -93 -126c-4 -14 -5 -16 -18 -16c-5 0 -15 0 -15 10z" />
    <glyph glyph-name="j" unicode="j" horiz-adv-x="306" 
d="M-35 -147c0 39 31 53 49 53c26 0 35 -19 35 -32c0 -5 -3 -37 -38 -48c2 -1 16 -9 34 -9c62 0 101 78 114 131l95 381c4 16 7 35 7 51c0 18 -2 40 -27 40c-52 0 -92 -62 -117 -125c-6 -16 -6 -17 -19 -17c-5 0 -15 0 -15 10c0 7 53 154 152 154c56 0 86 -43 86 -90
c0 -14 -4 -30 -5 -33l-93 -374c-21 -85 -101 -150 -177 -150c-44 0 -81 21 -81 58zM274 608c0 24 24 48 49 48c12 0 34 -6 34 -34c0 -25 -25 -47 -49 -47s-34 20 -34 33z" />
    <glyph glyph-name="k" unicode="k" horiz-adv-x="460" 
d="M75 15c0 2 1 11 2 13l148 590c0 1 3 14 3 17c0 10 -2 17 -50 17c-14 0 -24 0 -24 11c0 19 11 20 23 21l99 8c3 1 13 2 16 2c8 0 14 -3 14 -12c0 -2 -2 -10 -3 -13l-102 -408c35 17 51 33 108 99c34 40 77 82 130 82c45 0 63 -34 63 -60c0 -38 -28 -56 -50 -56
c-26 0 -35 19 -35 32c0 8 5 43 47 50c-1 1 -8 12 -27 12c-50 0 -89 -46 -141 -105c-27 -31 -48 -52 -71 -66c63 -9 133 -36 133 -104c0 -13 0 -14 -5 -35c-1 -5 -8 -33 -8 -56c0 -20 2 -43 29 -43c44 0 63 68 76 119c6 22 7 23 19 23c7 0 15 0 15 -10c0 -3 -14 -64 -36 -102
c-11 -19 -33 -52 -77 -52c-37 0 -84 25 -84 97c0 10 0 17 4 34c3 14 3 18 3 25c0 58 -64 79 -101 84l-51 -203c-2 -9 -9 -37 -39 -37c-19 0 -28 15 -28 26z" />
    <glyph glyph-name="l" unicode="l" horiz-adv-x="255" 
d="M94 79c0 15 5 35 6 39l125 500c0 1 3 14 3 17c0 10 -2 17 -50 17c-14 0 -24 0 -24 11c0 19 11 20 23 21l99 8c3 1 13 2 16 2c8 0 14 -3 14 -12c0 -2 -2 -10 -3 -13l-143 -571c-6 -24 -6 -39 -6 -46c0 -14 0 -41 26 -41c28 0 47 42 64 112l7 25c3 5 9 5 14 5
c7 0 15 0 15 -10c0 -3 -14 -67 -31 -102c-13 -25 -33 -52 -71 -52c-48 0 -84 37 -84 90z" />
    <glyph glyph-name="m" unicode="m" horiz-adv-x="817" 
d="M83 288c0 2 13 61 32 101c16 30 36 53 72 53c43 0 77 -30 84 -79c34 46 83 79 143 79c45 0 97 -19 105 -88c30 44 80 88 150 88c47 0 105 -20 105 -104c0 -58 -41 -170 -61 -223c-8 -24 -18 -50 -18 -75c0 -14 1 -29 22 -29c58 0 85 98 93 125c4 15 4 17 17 17
c7 0 15 0 15 -10c0 -5 -34 -154 -127 -154c-48 0 -76 36 -76 80c0 21 3 30 16 64c14 40 58 159 58 221c0 15 0 66 -46 66c-69 0 -112 -58 -141 -108c-12 -21 -12 -23 -25 -72c-5 -22 -11 -43 -16 -65l-40 -160c-7 -19 -24 -26 -36 -26c-20 0 -28 15 -28 26c0 3 1 8 3 14
l65 260c2 9 9 38 9 65c0 15 0 66 -46 66c-69 0 -112 -58 -141 -108c-12 -21 -12 -23 -25 -72c-5 -22 -11 -43 -16 -65l-40 -160c-7 -19 -24 -26 -36 -26c-20 0 -28 15 -28 26c0 3 1 8 3 14l75 300c4 16 7 35 7 51c0 11 0 40 -26 40c-31 0 -50 -49 -68 -119
c-5 -22 -6 -23 -19 -23c-5 0 -15 0 -15 10z" />
    <glyph glyph-name="n" unicode="n" horiz-adv-x="562" 
d="M83 288c0 2 13 61 32 101c16 30 36 53 72 53c43 0 77 -30 84 -79c13 19 61 79 143 79c49 0 104 -22 104 -104c0 -58 -41 -170 -61 -223c-8 -24 -18 -50 -18 -75c0 -14 1 -29 22 -29c58 0 85 98 93 125c4 15 4 17 17 17c7 0 15 0 15 -10c0 -5 -34 -154 -127 -154
c-48 0 -76 36 -76 80c0 21 3 30 16 64c14 40 58 159 58 221c0 21 -2 66 -46 66c-76 0 -121 -75 -135 -99c-17 -29 -17 -30 -30 -81c-5 -22 -11 -43 -16 -65l-40 -160c-7 -19 -24 -26 -36 -26c-20 0 -28 15 -28 26c0 3 1 8 3 14l75 300c4 16 7 35 7 51c0 11 0 40 -26 40
c-31 0 -50 -49 -68 -119c-5 -22 -6 -23 -19 -23c-5 0 -15 0 -15 10z" />
    <glyph glyph-name="o" unicode="o" 
d="M110 154c0 146 129 288 253 288c87 0 146 -69 146 -164c0 -147 -129 -289 -253 -289c-83 0 -146 62 -146 165zM180 114c0 -72 37 -103 76 -103c49 0 100 45 129 100c32 60 54 163 54 206c0 59 -28 103 -77 103c-39 0 -87 -30 -124 -91c-32 -54 -58 -165 -58 -215z" />
    <glyph glyph-name="p" unicode="p" 
d="M14 -182c0 19 12 19 21 19c39 1 47 4 55 35l114 458c7 28 7 44 7 50c0 11 0 40 -26 40c-31 0 -50 -49 -68 -119c-5 -22 -6 -23 -19 -23c-5 0 -15 0 -15 10c0 2 13 61 32 101c16 30 36 53 72 53c25 0 70 -12 82 -70c29 34 72 70 121 70c60 0 120 -49 120 -156
c0 -149 -119 -297 -228 -297c-52 0 -77 41 -84 58l-36 -146c-4 -16 -11 -42 -11 -48c0 -10 0 -16 51 -16c14 0 24 0 24 -12c0 -19 -13 -19 -19 -19c-31 0 -65 3 -97 3c-28 0 -57 -3 -84 -3c-7 0 -12 5 -12 12zM213 104c0 -8 10 -93 68 -93c51 0 94 70 106 95
c29 64 56 183 56 225c0 32 -10 89 -55 89c-55 0 -117 -79 -125 -113l-47 -189c-2 -8 -3 -11 -3 -14z" />
    <glyph glyph-name="q" unicode="q" horiz-adv-x="460" 
d="M108 144c0 146 118 298 229 298c48 0 74 -35 86 -64c16 28 52 63 63 63c3 0 11 -2 11 -11c0 -2 -2 -10 -3 -13l-137 -546c-1 -6 -3 -11 -3 -18c0 -10 0 -16 51 -16c14 0 24 0 24 -12c0 -19 -13 -19 -19 -19c-32 0 -68 3 -101 3s-68 -3 -100 -3c-7 0 -13 3 -13 12
c0 19 11 19 24 19c64 1 65 5 76 48l39 157c-28 -27 -65 -53 -106 -53c-75 0 -121 70 -121 155zM176 100c0 -30 8 -89 55 -89c55 0 116 80 124 111l48 192c2 6 3 10 3 13c0 19 -10 48 -20 64c-18 28 -41 29 -49 29c-41 0 -87 -50 -112 -111c-18 -42 -49 -159 -49 -209z" />
    <glyph glyph-name="r" unicode="r" horiz-adv-x="421" 
d="M83 288c0 2 13 61 32 101c16 30 36 53 72 53c33 0 72 -19 83 -72c16 22 52 72 121 72c33 0 98 -11 98 -63c0 -39 -31 -53 -49 -53c-26 0 -35 19 -35 32c0 5 3 37 38 48c-20 14 -48 14 -53 14c-86 0 -131 -129 -132 -132l-65 -262c-2 -8 -9 -37 -39 -37
c-20 0 -28 15 -28 26c0 3 1 8 3 14l75 300c4 16 7 35 7 51c0 11 0 40 -26 40c-31 0 -50 -49 -68 -119c-5 -22 -6 -23 -19 -23c-5 0 -15 0 -15 10z" />
    <glyph glyph-name="s" unicode="s" horiz-adv-x="408" 
d="M76 86c0 45 28 62 51 62c21 0 34 -13 34 -32c0 -2 0 -44 -51 -49c16 -51 74 -56 96 -56c103 0 130 80 130 112c0 54 -45 64 -89 74c-28 6 -93 20 -93 97c0 52 41 148 158 148c66 0 107 -39 107 -85c0 -43 -26 -55 -43 -55c-24 0 -30 17 -30 28c0 10 8 37 40 41
c-11 39 -48 49 -75 49c-80 0 -101 -68 -101 -92c0 -43 36 -51 64 -57c41 -9 119 -27 119 -114c0 -46 -38 -168 -188 -168c-71 0 -129 36 -129 97z" />
    <glyph glyph-name="t" unicode="t" horiz-adv-x="332" 
d="M91 412c0 19 11 19 28 19h85l39 159c4 15 14 36 39 36c10 0 27 -5 27 -26c0 -5 0 -7 -4 -21l-37 -148h80c16 0 25 0 25 -12c0 -19 -11 -19 -28 -19h-85l-74 -297c-7 -28 -7 -44 -7 -51c0 -16 0 -41 27 -41c57 0 97 75 115 123c8 18 8 19 20 19c7 0 15 0 15 -10
c0 -5 -51 -154 -152 -154c-52 0 -85 40 -85 90c0 14 4 30 5 34l72 287h-80c-16 0 -25 0 -25 12z" />
    <glyph glyph-name="u" unicode="u" horiz-adv-x="536" 
d="M83 288c0 6 35 154 128 154c43 0 76 -31 76 -81c0 -19 -5 -33 -13 -54c-25 -68 -58 -158 -58 -219c0 -33 9 -77 54 -77c44 0 73 30 92 58c9 13 9 15 14 33l73 292c2 8 9 37 39 37c20 0 28 -15 28 -26c0 -3 -1 -8 -3 -14l-72 -288c-7 -28 -7 -44 -7 -51
c0 -14 0 -41 26 -41c34 0 53 63 67 119c6 22 7 23 19 23c7 0 15 0 15 -10c0 -2 -12 -60 -30 -98c-15 -31 -36 -56 -73 -56c-19 0 -62 6 -80 60c-24 -30 -58 -60 -111 -60c-54 0 -112 29 -112 116c0 52 26 126 52 196c14 39 24 66 24 90c0 26 -11 29 -22 29
c-58 0 -85 -95 -93 -126c-4 -14 -5 -16 -18 -16c-5 0 -15 0 -15 10z" />
    <glyph glyph-name="v" unicode="v" horiz-adv-x="460" 
d="M83 288c0 6 35 154 128 154c43 0 76 -31 76 -81c0 -19 -6 -34 -11 -50c-27 -72 -59 -159 -59 -217c0 -33 11 -83 65 -83c115 0 162 251 162 279c0 21 -3 53 -27 79c-6 7 -13 14 -13 27c0 23 25 46 48 46c29 0 41 -31 41 -66c0 -26 -46 -387 -214 -387
c-59 0 -123 29 -123 120c0 47 20 107 51 192c14 39 24 66 24 90c0 26 -11 29 -22 29c-58 0 -85 -95 -93 -126c-4 -14 -5 -16 -18 -16c-5 0 -15 0 -15 10z" />
    <glyph glyph-name="w" unicode="w" horiz-adv-x="664" 
d="M83 288c0 6 35 154 128 154c43 0 76 -31 76 -81c0 -19 -5 -34 -12 -53c-31 -82 -57 -156 -57 -210c0 -13 0 -87 70 -87c53 0 84 83 84 94c0 14 1 35 8 63l57 228c2 8 9 35 38 35c20 0 28 -15 28 -26c0 -4 -10 -44 -16 -66l-42 -168c-11 -44 -12 -68 -12 -77
c0 -42 16 -83 66 -83c46 0 78 41 100 93c17 41 49 146 49 186c0 21 -3 53 -27 79c-6 7 -13 14 -13 27c0 23 25 46 48 46c29 0 41 -31 41 -66c0 -53 -39 -207 -69 -275c-30 -71 -72 -112 -132 -112c-59 0 -99 27 -114 64c-30 -51 -65 -64 -97 -64c-17 0 -62 3 -94 31
c-26 24 -34 58 -34 92c0 27 0 53 50 189c14 39 24 66 24 90c0 26 -11 29 -22 29c-58 0 -85 -95 -93 -126c-4 -14 -5 -16 -18 -16c-5 0 -15 0 -15 10z" />
    <glyph glyph-name="x" unicode="x" horiz-adv-x="463" 
d="M53 51c0 33 25 54 50 54c13 0 34 -6 34 -32c0 -15 -9 -40 -39 -48c17 -14 41 -14 44 -14c60 0 81 80 97 145c11 46 12 50 23 91c9 37 21 86 21 110c0 40 -19 63 -48 63c-40 0 -92 -39 -119 -125c-5 -16 -5 -17 -18 -17c-5 0 -15 0 -15 10c0 23 54 154 154 154
c25 0 74 -8 96 -68c10 19 43 68 98 68c29 0 87 -12 87 -63c0 -39 -31 -53 -49 -53c-26 0 -35 19 -35 32c0 1 0 38 40 48c-16 14 -41 14 -44 14c-47 0 -74 -55 -88 -107c-8 -33 -23 -95 -34 -137c-8 -34 -19 -77 -19 -101c0 -52 27 -64 47 -64c42 0 92 39 119 125
c5 16 6 17 18 17c7 0 15 0 15 -10c0 -20 -51 -154 -154 -154c-26 0 -75 11 -95 68c-17 -30 -50 -68 -98 -68c-46 0 -88 23 -88 62z" />
    <glyph glyph-name="y" unicode="y" horiz-adv-x="485" 
d="M83 288c0 6 35 154 128 154c43 0 76 -31 76 -81c0 -19 -5 -33 -13 -54c-25 -68 -58 -158 -58 -219c0 -33 9 -77 54 -77c59 0 99 60 106 89l73 294c2 8 9 37 39 37c20 0 28 -15 28 -26c0 -3 -2 -8 -3 -14l-98 -394c-25 -99 -116 -202 -220 -202c-55 0 -96 34 -96 86
c0 56 39 62 51 62c18 0 34 -11 34 -32c0 -16 -12 -43 -43 -48c-7 -1 -8 -2 -8 -3c0 -5 14 -43 62 -43c50 0 124 44 162 209c-13 -13 -44 -37 -90 -37c-54 0 -112 29 -112 116c0 52 26 126 52 196c14 39 24 66 24 90c0 26 -11 29 -22 29c-58 0 -85 -95 -93 -126
c-4 -14 -5 -16 -18 -16c-5 0 -15 0 -15 10z" />
    <glyph glyph-name="z" unicode="z" horiz-adv-x="408" 
d="M62 -1c0 10 48 84 104 139l164 163c16 16 25 27 40 44c-15 0 -26 0 -59 15c-22 10 -40 18 -60 18c-37 0 -66 -25 -74 -47c-5 -12 -6 -14 -18 -14c-8 0 -15 2 -15 11c0 20 43 114 117 114c32 0 49 -23 61 -39c19 -26 29 -36 47 -36c16 0 29 5 62 62c6 12 7 13 19 13
c6 0 14 0 14 -10c0 -9 -48 -85 -107 -143l-145 -143c-28 -28 -49 -53 -56 -61c5 1 13 1 18 1c20 0 32 -4 62 -17c20 -9 36 -16 56 -16c43 0 91 34 109 84c4 13 5 16 17 16c3 0 15 0 15 -10c0 -24 -54 -154 -151 -154c-31 0 -46 19 -62 39c-18 25 -26 36 -48 36
c-38 0 -65 -45 -79 -66c-4 -7 -5 -9 -16 -9c-6 0 -15 0 -15 10z" />
    <glyph glyph-name="uni00A0" unicode="&#xa0;" horiz-adv-x="358" 
 />
    <glyph glyph-name="endash" unicode="&#x2013;" 
d="M93 266c0 11 10 11 25 11h408c15 0 25 0 25 -11s-10 -11 -25 -11h-408c-15 0 -25 0 -25 11z" />
    </font>
</defs>
</svg>
